<?xml version="1.0" standalone="no"?>
<!DOCTYPE svg PUBLIC "-//W3C//DTD SVG 20010904//EN"
 "http://www.w3.org/TR/2001/REC-SVG-20010904/DTD/svg10.dtd">
<svg version="1.0" xmlns="http://www.w3.org/2000/svg"
 width="512.000000pt" height="512.000000pt" viewBox="0 0 512.000000 512.000000"
 preserveAspectRatio="xMidYMid meet">
<metadata>
Created by potrace 1.14, written by Peter Selinger 2001-2017
</metadata>
<g transform="translate(0.000000,512.000000) scale(0.100000,-0.100000)"
fill="#000000" stroke="none">
<path d="M2378 5115 c-2 -1 -34 -5 -73 -9 -38 -3 -97 -10 -130 -16 -33 -6 -76
-13 -95 -16 -67 -10 -303 -75 -383 -105 -143 -53 -179 -69 -312 -138 -236
-122 -419 -256 -616 -451 -240 -238 -415 -487 -543 -775 -41 -94 -104 -260
-111 -296 -2 -9 -12 -47 -23 -85 -56 -190 -86 -423 -86 -654 1 -118 9 -281 18
-325 2 -11 7 -45 11 -75 26 -193 96 -434 186 -639 92 -209 254 -466 404 -641
37 -43 231 -236 270 -269 101 -85 333 -251 350 -251 4 0 20 -9 36 -21 39 -28
203 -108 314 -154 104 -44 203 -76 332 -110 120 -31 234 -51 408 -72 28 -3
665 -6 1418 -7 l1367 -2 0 213 0 213 -572 0 -571 0 59 42 c337 239 626 573
808 936 119 237 209 515 242 742 2 19 6 44 9 55 19 94 27 460 13 605 -50 503
-246 976 -567 1367 -83 102 -238 261 -325 335 -142 120 -342 251 -516 338 -47
23 -93 46 -102 51 -98 51 -427 152 -568 174 -19 3 -42 8 -50 10 -8 2 -39 7
-69 10 -30 4 -63 9 -75 12 -22 5 -452 13 -458 8z m257 -749 c65 -7 97 -17 173
-55 71 -36 173 -132 214 -201 58 -99 85 -249 65 -362 -18 -102 -76 -208 -157
-287 -65 -64 -135 -105 -223 -132 -143 -43 -375 0 -464 87 -7 7 -23 21 -36 31
-59 48 -122 143 -153 233 -26 76 -26 243 0 320 56 165 202 309 356 351 48 12
148 27 165 23 6 -2 33 -5 60 -8z m-1183 -887 c82 -17 187 -71 250 -128 179
-162 226 -438 110 -648 -92 -168 -280 -279 -467 -276 -44 1 -87 4 -95 6 -123
32 -198 70 -265 134 -285 278 -198 740 168 884 100 40 199 49 299 28z m2492
-18 c107 -38 213 -115 271 -198 105 -150 123 -352 48 -523 -133 -297 -497
-404 -774 -227 -105 67 -199 196 -225 307 -4 19 -9 42 -11 50 -2 8 -4 51 -4
96 -2 232 166 444 401 509 76 21 217 14 294 -14z m-1962 -1429 c261 -94 412
-374 343 -637 -48 -185 -202 -339 -380 -381 -53 -13 -75 -15 -135 -17 -138 -2
-268 52 -370 153 -106 105 -155 220 -159 375 -6 219 147 438 350 500 30 9 65
20 79 25 47 14 211 4 272 -18z m1499 -1 c270 -86 423 -383 340 -658 -116 -385
-602 -504 -886 -217 -103 105 -156 240 -150 387 10 244 174 447 408 502 75 18
209 11 288 -14z"/>
</g>
</svg>
